<svg xmlns="http://www.w3.org/2000/svg" viewBox="0 0 512.001 512.001"><defs/><path d="M49.638 75.152c46.11-46.108 121.134-46.109 167.243 0l28.337 28.337-62.513 62.513c-4.25 4.249-6.59 9.9-6.59 15.91s2.34 11.661 6.59 15.91c21.616 21.615 56.789 21.616 78.406 0l37.092-37.092 74.275 71.74a7.474 7.474 0 005.21 2.105 7.5 7.5 0 005.212-12.894l-79.577-76.861a7.502 7.502 0 00-10.514.091l-42.304 42.304c-15.769 15.767-41.425 15.767-57.193 0-2.924-2.924-2.924-7.683 0-10.607l65.597-65.597a7.56 7.56 0 00.787-.939c.016-.008.03-.018.046-.027.098-.051.192-.11.287-.165.12-.07.241-.137.358-.214.11-.073.215-.154.321-.232.095-.071.193-.136.285-.211a7.3 7.3 0 00.508-.457c.02-.019.041-.035.06-.054l.002-.002.003-.002 33.554-33.555c20.045-20.045 46.633-32.231 74.864-34.314 27.943-2.055 55.735 5.833 78.254 22.23a7.5 7.5 0 008.83-12.126c-25.386-18.485-56.707-27.385-88.187-25.063-31.817 2.347-61.779 16.08-84.367 38.667l-28.513 28.514-28.513-28.514C175.531 12.588 90.99 12.588 39.031 64.546 14.554 89.023.702 121.558.026 156.157c-.673 34.5 11.798 67.454 35.116 92.792a7.479 7.479 0 005.521 2.421 7.5 7.5 0 005.517-12.578c-20.689-22.481-31.754-51.724-31.156-82.342.599-30.704 12.892-59.576 34.614-81.298z"/><path d="M482.199 74.767a7.5 7.5 0 00-11.634 9.468c18.366 22.565 27.705 51.073 26.297 80.271-1.418 29.397-13.669 57.059-34.499 77.889L433.858 270.9l-27.446-26.509a7.5 7.5 0 00-10.421 10.789l32.705 31.588 18.701 18.701c9.346 9.346 9.346 24.554 0 33.9-9.345 9.346-24.553 9.346-33.899.001l-.005-.005-63.452-63.451a7.5 7.5 0 00-10.606 0 7.5 7.5 0 000 10.606l63.457 63.457.033.033 8.373 8.373c9.346 9.346 9.346 24.554 0 33.9-9.347 9.346-24.555 9.345-33.9 0l-8.408-8.407-61.75-61.75a7.5 7.5 0 00-10.606 0 7.5 7.5 0 000 10.606l61.75 61.75a23.813 23.813 0 017.021 16.95c0 6.402-2.493 12.422-7.021 16.95s-10.547 7.021-16.95 7.021a23.811 23.811 0 01-16.95-7.022l-8.407-8.406-16.047-16.047a7.503 7.503 0 00-1.478-1.139 38.75 38.75 0 00-8.26-12.223c-9.132-9.132-21.704-12.768-33.583-10.923 1.845-11.879-1.791-24.452-10.923-33.584s-21.705-12.768-33.583-10.923c1.845-11.878-1.791-24.451-10.923-33.583-9.125-9.125-21.686-12.762-33.557-10.927a39.45 39.45 0 00.465-6.023c0-10.41-4.054-20.196-11.415-27.557-7.36-7.361-17.147-11.415-27.557-11.415-10.409 0-20.196 4.054-27.556 11.415l-18.685 18.685L69 261.756a7.5 7.5 0 00-10.606 10.607l13.975 13.975-8.525 8.525c-7.361 7.36-11.415 17.147-11.415 27.557 0 10.409 4.054 20.196 11.415 27.556 7.295 7.296 16.975 11.337 27.28 11.408-5.316 13.924-2.384 30.303 8.819 41.506 7.597 7.598 17.577 11.396 27.557 11.396 4.736 0 9.468-.866 13.95-2.577.071 10.306 4.112 19.985 11.408 27.281 7.597 7.598 17.577 11.396 27.557 11.396a39.11 39.11 0 0013.967-2.584c.068 9.889 3.861 19.758 11.39 27.287 7.597 7.597 17.577 11.396 27.556 11.396 9.98 0 19.96-3.799 27.557-11.396l.041-.04.04.04c7.598 7.597 17.577 11.396 27.557 11.396s19.96-3.799 27.557-11.396c7.52-7.52 11.318-17.373 11.395-27.25a38.948 38.948 0 0013.962 2.564c10.41 0 20.196-4.054 27.557-11.415 7.292-7.292 11.339-16.965 11.414-27.266 13.921 5.313 30.3 2.368 41.501-8.833 11.205-11.205 14.147-27.593 8.826-41.519 9.884-.072 19.748-3.87 27.273-11.395 15.195-15.195 15.195-39.918 0-55.113l-13.448-13.448L472.974 253c23.471-23.472 37.277-54.643 38.874-87.772 1.583-32.896-8.945-65.023-29.649-90.461zM67.428 322.42a23.813 23.813 0 017.021-16.95l37.816-37.816c4.528-4.528 10.547-7.021 16.95-7.021s12.422 2.493 16.95 7.021 7.021 10.547 7.021 16.95a23.814 23.814 0 01-7.021 16.95l-37.812 37.813-.004.004a23.813 23.813 0 01-16.95 7.021 23.814 23.814 0 01-16.95-7.021 23.818 23.818 0 01-7.021-16.951zm43.12 69.864c-9.346-9.346-9.346-24.554 0-33.9l46.224-46.224c4.674-4.673 10.811-7.009 16.95-7.009 6.138 0 12.278 2.337 16.95 7.009 9.346 9.346 9.346 24.554 0 33.9l-46.224 46.224c-9.347 9.346-24.553 9.345-33.9 0zm52.914 36.099a23.813 23.813 0 01-7.021-16.95 23.814 23.814 0 017.021-16.95l.005-.005 37.812-37.812c9.347-9.346 24.554-9.346 33.9.001 9.346 9.346 9.346 24.554 0 33.9l-29.405 29.405-.005.005-.009.01-8.398 8.398a23.815 23.815 0 01-16.95 7.021 23.825 23.825 0 01-16.95-7.023zm52.914 36.1c-9.345-9.345-9.346-24.549-.005-33.895l29.414-29.414c9.347-9.346 24.554-9.345 33.9 0 9.346 9.346 9.346 24.554 0 33.9l-24.056 24.057-.009.008-.008.009-5.335 5.335c-9.347 9.346-24.554 9.345-33.901 0zm89.095 0c-9.347 9.346-24.554 9.346-33.9 0l-.041-.041 18.762-18.763a38.735 38.735 0 0010.591-19.684l4.588 4.588c9.346 9.346 9.346 24.553 0 33.9z"/></svg>