<svg xmlns="http://www.w3.org/2000/svg" fill-rule="evenodd"
stroke-linejoin="round" stroke-miterlimit="2"
clip-rule="evenodd" viewBox="0 0 384 384">
<title>Menu</title>
<path d="M384.97 108.273c0-11.59-9.41-21-21-21H21c-11.591
0-21 9.41-21 21s9.409 21 21 21h342.97c11.59 0 21-9.41
21-21zm.001 84.212c0-11.59-9.41-21-21-21H21c-11.591 0-21
9.41-21 21s9.409 21 21 21h342.97c11.59 0 21-9.41
21-21zm-.001 84.212c0-11.59-9.41-21-21-21H141.304c-11.59
0-21 9.41-21 21s9.41 21 21 21H363.97c11.59 0 21-9.41
21-21z"/></svg>
