<?xml version="1.0" encoding="UTF-8" standalone="no"?><!DOCTYPE svg PUBLIC "-//W3C//DTD SVG 1.1//EN" "http://www.w3.org/Graphics/SVG/1.1/DTD/svg11.dtd"><svg width="100%" height="100%" viewBox="0 0 366 315" version="1.1" xmlns="http://www.w3.org/2000/svg" xmlns:xlink="http://www.w3.org/1999/xlink" xml:space="preserve" xmlns:serif="http://www.serif.com/" style="fill-rule:evenodd;clip-rule:evenodd;stroke-linecap:round;stroke-linejoin:round;stroke-miterlimit:1.5;"><rect id="Artboard1" x="0" y="0" width="366" height="315" style="fill:none;"/><path d="M222.682,26.675l-79.364,0c-78.319,0 -139.325,50.806 -139.325,109.232c-0,30.238 15.848,59.435 44.413,80.188c-0,0 -20.952,43.321 -20.952,43.321c-4.144,8.567 -1.958,18.852 5.311,24.995c7.268,6.142 17.775,6.581 25.53,1.066l59.338,-42.19c8.455,1.23 17.056,1.852 25.685,1.852l79.364,-0c8.629,-0 17.23,-0.622 25.686,-1.852c-0.001,-0 59.337,42.19 59.337,42.19c7.755,5.515 18.262,5.076 25.53,-1.066c7.269,-6.143 9.455,-16.428 5.311,-24.995l-20.952,-43.321c28.565,-20.753 44.413,-49.95 44.413,-80.188c0,-58.426 -61.006,-109.232 -139.325,-109.232Z" style="fill:#fff;"/><path d="M186.338,51.78c11.448,-2.773 23.665,-4.262 36.344,-4.262c65.392,0 118.482,39.606 118.482,88.389c0,28.829 -18.846,55.847 -50.495,72.389l29.114,60.195l-66.401,-47.213c-10.012,2.003 -20.334,3.018 -30.7,3.018c-12.679,0 -24.896,-1.489 -36.344,-4.261c47.64,-11.443 47.64,-156.813 0,-168.255Z" style="fill:#277da1;stroke:#3a5d6c;stroke-width:11.79px;"/><path d="M179.662,51.78c-11.448,-2.773 -23.665,-4.262 -36.344,-4.262c-65.392,0 -118.482,39.606 -118.482,88.389c-0,28.829 18.846,55.847 50.495,72.389l-29.114,60.195l66.401,-47.213c10.012,2.003 20.334,3.018 30.7,3.018c12.679,0 24.896,-1.489 36.344,-4.261c-47.64,-11.443 -47.64,-156.813 -0,-168.255Z" style="fill:#43aa8b;stroke:#1a7a5d;stroke-width:11.79px;"/><path d="M140.439,168.363c-22.698,-14.31 -37.692,-38.922 -37.692,-66.858c-0,-44.155 37.456,-80.003 83.591,-80.003c46.136,0 83.592,35.848 83.592,80.003c-0,28.294 -15.381,53.177 -38.574,67.406l-0,43.483c-0,12.049 -9.783,21.832 -21.833,21.832l-47.255,0c-12.049,0 -21.832,-9.783 -21.832,-21.832l-0,-43.666c-0,-0.122 0.001,-0.243 0.003,-0.365Z" style="fill:#fff;stroke:#fff;stroke-width:34px;"/><path d="M140.439,168.363c-22.698,-14.31 -37.692,-38.922 -37.692,-66.858c-0,-44.155 37.456,-80.003 83.591,-80.003c46.136,0 83.592,35.848 83.592,80.003c-0,28.294 -15.381,53.177 -38.574,67.406l-0,43.483c-0,12.049 -9.783,21.832 -21.833,21.832l-47.255,0c-12.049,0 -21.832,-9.783 -21.832,-21.832l-0,-43.666c-0,-0.122 0.001,-0.243 0.003,-0.365Z" style="fill:none;stroke:#f9c74f;stroke-width:11.79px;"/><path d="M217.081,289.743c-4.926,7.112 -13.01,11.755 -22.139,11.755l-13.293,-0c-9.13,-0 -17.214,-4.643 -22.139,-11.755l57.571,-0Zm5.027,-18.554l0,2.362c0,3.592 -0.66,7.027 -1.863,10.185l-63.9,-0c-1.203,-3.158 -1.863,-6.593 -1.863,-10.185l-0,-2.362l67.626,-0Zm0,-6.007l-67.626,-0l-0,-12.547l67.626,-0l0,12.547Z" style="fill:#595959;"/><path d="M144.942,268.185c-0.299,0.948 -0.46,1.957 -0.46,3.004l-0,2.362c-0,4.849 0.895,9.484 2.519,13.745c0.569,1.495 1.472,2.794 2.607,3.824c0.209,1.524 0.772,3.005 1.681,4.316c6.749,9.746 17.85,16.062 30.36,16.062c-0,-0 13.293,-0 13.293,-0c12.51,-0 23.611,-6.316 30.36,-16.062c0.908,-1.311 1.472,-2.792 1.681,-4.316c1.135,-1.03 2.037,-2.329 2.607,-3.824c1.623,-4.261 2.518,-8.896 2.518,-13.745c0,0 0,-2.362 0,-2.362c0,-1.047 -0.16,-2.056 -0.459,-3.004c0.299,-0.948 0.459,-1.957 0.459,-3.003l0,-12.547c0,-5.523 -4.477,-10 -10,-10l-67.626,-0c-5.523,-0 -10,4.477 -10,10l-0,12.547c-0,1.046 0.161,2.055 0.46,3.003Zm72.139,21.558c-4.926,7.112 -13.01,11.755 -22.139,11.755l-13.293,-0c-9.13,-0 -17.214,-4.643 -22.139,-11.755l57.571,-0Zm5.027,-18.554l0,2.362c0,3.592 -0.66,7.027 -1.863,10.185l-63.9,-0c-1.203,-3.158 -1.863,-6.593 -1.863,-10.185l-0,-2.362l67.626,-0Zm0,-6.007l-67.626,-0l-0,-12.547l67.626,-0l0,12.547Z" style="fill:#fff;"/></svg>