<?xml version="1.0" encoding="UTF-8" standalone="no"?><!DOCTYPE svg PUBLIC "-//W3C//DTD SVG 1.1//EN" "http://www.w3.org/Graphics/SVG/1.1/DTD/svg11.dtd"><svg width="100%" height="100%" viewBox="0 0 800 600" version="1.1" xmlns="http://www.w3.org/2000/svg" xmlns:xlink="http://www.w3.org/1999/xlink" xml:space="preserve" xmlns:serif="http://www.serif.com/" style="fill-rule:evenodd;clip-rule:evenodd;stroke-linejoin:round;stroke-miterlimit:2;"><path d="M470.161,564.008c-10.14,14.642 -26.782,24.2 -45.577,24.2l-27.366,-0c-18.795,-0 -35.437,-9.558 -45.577,-24.2l118.52,0Zm10.35,-38.196l0,4.863c0,7.395 -1.359,14.467 -3.836,20.967l-131.548,-0c-2.477,-6.5 -3.836,-13.572 -3.836,-20.967l0,-4.863l139.22,-0Zm112.795,-440.309c78.539,30.233 132.3,91.375 132.3,161.81c0,59.349 -38.797,114.969 -103.951,149.025l59.934,123.919l-136.697,-97.195c-3.658,0.732 -7.335,1.4 -11.03,2.002c1.66,-6.491 2.541,-13.289 2.541,-20.292l0,-70.167c48.512,-37.01 79.411,-94.175 79.411,-158.115c0,-32.67 -8.104,-63.6 -22.508,-90.987Zm-369.619,-5.93c-16.428,28.816 -25.757,61.865 -25.757,96.917c0,63.141 30.131,119.672 77.589,156.709l-0,71.573c-0,7.644 1.051,15.044 3.018,22.069c-7.881,-0.972 -15.699,-2.232 -23.429,-3.779l-136.697,97.195l59.934,-123.919c-65.154,-34.056 -103.951,-89.676 -103.951,-149.025c-0,-75.401 61.609,-140.153 149.293,-167.74Zm256.824,433.872l-139.22,0l0,-25.829l139.22,-0l0,25.829Zm-168.13,-199.317c-46.728,-29.459 -77.595,-80.126 -77.595,-137.638c-0,-90.899 77.109,-164.698 172.086,-164.698c94.977,0 172.087,73.799 172.087,164.698c-0,58.249 -31.663,109.475 -79.411,138.767l-0,89.515c-0,24.807 -20.14,44.947 -44.946,44.947l-97.281,-0c-24.807,-0 -44.946,-20.14 -44.946,-44.947l-0,-89.892c-0,-0.251 0.002,-0.501 0.006,-0.752Z" style="fill:#888;"/></svg>