<svg xmlns="http://www.w3.org/2000/svg" fill-rule="evenodd" stroke-linejoin="round" stroke-miterlimit="2" clip-rule="evenodd" viewBox="0 0 885 762"><defs/><path d="M512.349 709.705c-11.953 17.89-31.57 29.57-53.722 29.57h-32.256c-22.155 0-41.772-11.68-53.722-29.57h139.7zM524.548 663.032v5.942c0 9.035-1.602 17.677-4.52 25.62h-155.06c-2.919-7.943-4.52-16.585-4.52-25.62v-5.942h164.1zM208.417 130.955c-89.432 37.53-150.142 110.438-150.142 194.152 0 72.106 45.782 139.68 122.666 181.056l-70.724 150.555 166.748-118.087-.988-103.454C219.8 387.944 184.42 317.485 184.42 239.06c0-38.534 8.59-75.183 23.997-108.106zM676.579 130.955c89.431 37.53 150.141 110.438 150.141 194.152 0 72.106-45.781 139.68-122.665 181.056l70.724 150.555-166.748-118.087-1.163-101.667c57.423-47.231 93.707-118.485 93.707-197.903 0-38.534-8.589-75.183-23.996-108.106zM360.357 617.06h164.282v31.37H360.357z"/><path d="M314.747 414.882v101.53c0 39.231 31.174 70.847 69.279 70.847h114.793c38.105 0 69.28-31.616 69.28-70.848V416.385c56.674-39.152 93.706-104.018 93.706-177.324 0-119.334-98.203-216.34-219.307-216.34-121.104 0-219.307 97.006-219.307 216.34 0 72.383 36.104 136.535 91.556 175.821z"/></svg>