<svg xmlns="http://www.w3.org/2000/svg" fill-rule="evenodd"
stroke-linejoin="round" stroke-miterlimit="2"
clip-rule="evenodd" viewBox="0 0 885 885">
<title>Street Epistemology</title>
<path fill="#05da71" d="m169.68 161.69 3.235-7.158C69.919
197.754 0 281.722 0 378.132 0 461.177 52.726 539 141.272
586.653l-81.451 173.39 192.04-135.998-1.138-119.146C186.025
450.501 145.28 369.355 145.28 279.034c0-41.605 8.695-81.303
24.402-117.343z"/><path fill="#20aaff" d="M712.089
154.532c102.995 43.222 172.914 127.19 172.914 223.6 0
83.044-52.725 160.867-141.27 208.52l81.45
173.39-192.04-135.998-1.34-117.088c66.134-54.395
107.921-136.457 107.921-227.92
0-44.38-9.891-86.587-27.635-124.504z"/><path fill="#f9c74f"
d="M522.948 821.067c-13.766 20.603-36.358 34.055-61.87
34.055h-37.149c-25.515
0-48.108-13.452-61.87-34.055h160.89zm14.05-53.753v6.844c0
10.405-1.845 20.358-5.206
29.506h-178.58c-3.361-9.148-5.205-19.101-5.205-29.506v-6.844h188.99zM347.902
714.37h189.2v36.128h-189.2V714.37zm-52.526-232.844v116.93c0
45.182 35.903 81.593 79.787 81.593h132.205c43.885 0
79.789-36.411 79.789-81.594V483.256c65.27-45.09
107.919-119.796 107.919-204.22
0-137.435-113.098-249.155-252.571-249.155-139.474 0-252.572
111.72-252.572 249.154 0 83.362 41.58 157.245 105.443
202.49z"/></svg>
