<svg xmlns="http://www.w3.org/2000/svg" fill-rule="evenodd" stroke-linecap="round" stroke-linejoin="round" stroke-miterlimit="1.5" clip-rule="evenodd" viewBox="0 0 885 762"><defs/><path fill="none" d="M0 0h885v761.68H0z"/><path fill="#fff" d="M271.088 92.135C137.968 122.017 42.993 221.931 42.993 334.06c0 69.482 35.369 136.572 99.121 184.26l-46.761 99.544c-9.247 19.685-4.37 43.32 11.853 57.434 16.222 14.114 39.669 15.123 56.979 2.451l134.429-96.948 45.171 20.123v49.42c0 11.141 1.998 21.793 5.622 31.585 1.271 3.434 7.543 15.691 9.569 18.704 15.063 22.394 39.839 36.907 67.758 36.907h29.667c27.92 0 52.695-14.513 67.758-36.907 2.027-3.013 8.298-15.27 9.569-18.704 3.624-9.792 5.622-20.444 5.622-31.585v-49.479l47.037-20.064 134.428 96.948c17.31 12.672 40.757 11.663 56.979-2.451 16.223-14.114 21.1-37.749 11.853-57.434l-46.761-99.544c63.752-47.689 99.121-114.778 99.121-184.26 0-112.129-94.975-212.043-228.095-241.925C570.818 47.233 510.07 19.14 442.5 19.14c-67.57 0-128.318 28.093-171.412 72.995z"/><path fill="#737373" d="M122.75 522.935l-41.484 88.311C69.06 637.23 75.577 668.411 96.99 687.04c21.731 18.907 53.133 20.254 76.334 3.308l127.134-91.687 27.763 12.368v39.315c0 13.047 2.345 25.52 6.589 36.987 1.494 4.038 8.869 18.447 11.252 21.989 17.919 26.64 47.458 43.784 80.672 43.784h29.667c33.214 0 62.753-17.144 80.672-43.784 2.383-3.542 9.758-17.951 11.252-21.989 4.244-11.467 6.589-23.94 6.589-36.987v-39.196l29.496-12.582 127.266 91.782c23.201 16.946 54.603 15.599 76.334-3.308 21.413-18.629 27.93-49.81 15.724-75.794l-41.482-88.307c61.624-50.255 95.319-118.504 95.319-188.879 0-117.392-97.24-223.186-235.717-256.065C576.16 32.115 512.795 3.576 442.5 3.576c-70.295 0-133.66 28.539-179.354 74.419h.001C124.669 110.873 27.429 216.668 27.429 334.06c0 70.374 33.693 138.621 95.321 188.875zm148.338-430.8C137.968 122.017 42.993 221.931 42.993 334.06c0 69.482 35.369 136.572 99.121 184.26l-46.761 99.544c-9.247 19.685-4.37 43.32 11.853 57.434 16.222 14.114 39.669 15.123 56.979 2.451l134.429-96.948 45.171 20.123v49.42c0 11.141 1.998 21.793 5.622 31.585 1.271 3.434 7.543 15.691 9.569 18.704 15.063 22.394 39.839 36.907 67.758 36.907h29.667c27.92 0 52.695-14.513 67.758-36.907 2.027-3.013 8.298-15.27 9.569-18.704 3.624-9.792 5.622-20.444 5.622-31.585v-49.479l47.037-20.064 134.428 96.948c17.31 12.672 40.757 11.663 56.979-2.451 16.223-14.114 21.1-37.749 11.853-57.434l-46.761-99.544c63.752-47.689 99.121-114.778 99.121-184.26 0-112.129-94.975-212.043-228.095-241.925C570.818 47.233 510.07 19.14 442.5 19.14c-67.57 0-128.318 28.093-171.412 72.995z"/><path fill="url(#_Linear1)" d="M657.553 155.691c82.162 34.478 137.937 101.46 137.937 178.369 0 66.245-42.06 128.327-112.694 166.339l64.975 138.317-153.194-108.488-1.068-93.403c52.755-43.392 86.09-108.854 86.09-181.816 0-35.402-7.891-69.072-22.046-99.318z"/><path fill="url(#_Linear2)" d="M227.447 155.691C145.285 190.169 89.51 257.151 89.51 334.06c0 66.245 42.06 128.327 112.694 166.339l-64.975 138.317 153.194-108.488-.908-95.045c-51.609-43.393-84.114-108.125-84.114-180.174 0-35.402 7.891-69.072 22.046-99.318z"/><path fill="none" stroke="#f9c74f" stroke-width="26.7" d="M340.062 408.638c-50.658-32.882-84.121-89.435-84.121-153.629 0-101.46 83.594-183.833 186.559-183.833s186.559 82.373 186.559 183.833c0 65.016-34.326 122.194-86.089 154.889v99.916c0 27.689-21.834 50.168-48.727 50.168H388.781c-26.893 0-48.726-22.479-48.726-50.168V409.478c0-.28.002-.559.007-.84z"/><path fill="#737373" d="M506.673 687.395c-10.981 16.436-29.003 27.167-49.355 27.167h-29.634c-20.354 0-38.376-10.731-49.355-27.167h128.344zm11.207-42.879v5.459c0 8.301-1.471 16.24-4.153 23.538H371.273c-2.682-7.298-4.153-15.237-4.153-23.538v-5.459h150.76zm.084-42.234H367.036v28.82h150.928v-28.82z"/><defs><linearGradient id="_Linear1" x1="0" x2="1" y1="0" y2="0" gradientTransform="matrix(128 222.649 -526.414 302.634 660 155.691)" gradientUnits="userSpaceOnUse"><stop offset="0" stop-color="#68c5ff"/><stop offset="1" stop-color="#20aaff"/></linearGradient><linearGradient id="_Linear2" x1="0" x2="1" y1="0" y2="0" gradientTransform="scale(-260.116) rotate(-58.866 -.961 .464)" gradientUnits="userSpaceOnUse"><stop offset="0" stop-color="#63eda8"/><stop offset="1" stop-color="#05da71"/></linearGradient></defs></svg>
